<svg width="256" height="256" viewBox="0 0 256 256" fill="none" xmlns="http://www.w3.org/2000/svg">
  <defs>
    <linearGradient id="pulseRoomFaviconGradient" x1="40" y1="34" x2="208" y2="186" gradientUnits="userSpaceOnUse">
      <stop offset="0" stop-color="#FFB11F"/>
      <stop offset="0.52" stop-color="#FF7A1A"/>
      <stop offset="1" stop-color="#FF2D3D"/>
    </linearGradient>
  </defs>

  <rect x="12" y="12" width="232" height="232" rx="56" fill="#111827"/>
  <path d="M40 152H94L108 176L132 100L162 196L184 164H216" stroke="url(#pulseRoomFaviconGradient)" stroke-width="14" stroke-linecap="round" stroke-linejoin="round"/>
  <path d="M135 66H178C190 66 200 76 200 88V118L182 104H135C123 104 114 95 114 83C114 73 121 66 135 66Z" fill="url(#pulseRoomFaviconGradient)"/>
  <rect x="129" y="78" width="28" height="20" rx="5" fill="#111827"/>
  <path d="M156 83L174 73V103L156 93V83Z" fill="#111827"/>
</svg>
